<?xml version="1.0" encoding="utf-8"?>
<!-- Generator: Adobe Illustrator 15.0.0, SVG Export Plug-In . SVG Version: 6.00 Build 0)  -->
<!DOCTYPE svg PUBLIC "-//W3C//DTD SVG 1.1//EN" "http://www.w3.org/Graphics/SVG/1.1/DTD/svg11.dtd">
<svg version="1.1" id="Layer_1" xmlns="http://www.w3.org/2000/svg" xmlns:xlink="http://www.w3.org/1999/xlink" x="0px" y="0px"
	 width="250px" height="250px" viewBox="0 0 250 250" enable-background="new 0 0 250 250" xml:space="preserve">
<radialGradient id="SVGID_1_" cx="-347.0874" cy="384.8105" r="27.9081" gradientTransform="matrix(0.103 -4.5917 -4.5827 -0.1056 1924.1133 -1428.4688)" gradientUnits="userSpaceOnUse">
	<stop  offset="0" style="stop-color:#FFFFFF"/>
	<stop  offset="1" style="stop-color:#010202;stop-opacity:0"/>
</radialGradient>
<path fill="url(#SVGID_1_)" d="M258.276,130.743c0.451,73.951-57.671,134.277-129.818,134.739
	C56.309,265.946-2.545,206.372-2.997,132.42c-0.004-0.56-0.004-1.118,0-1.677C-3.449,56.791,54.673-3.535,126.821-3.998
	s131.004,59.111,131.455,133.063C258.278,129.624,258.278,130.184,258.276,130.743z"/>
<linearGradient id="SVGID_2_" gradientUnits="userSpaceOnUse" x1="169.8545" y1="199.8604" x2="234.1073" y2="206.8275" gradientTransform="matrix(1 0 0 -1 -4.9678 282.4727)">
	<stop  offset="0" style="stop-color:#B2CDE9"/>
	<stop  offset="1" style="stop-color:#C4DBEE"/>
</linearGradient>
<path fill="url(#SVGID_2_)" d="M237.706,75.674c0,17.16-21.667,38.243-50.188,38.243c-28.522,0-65.602-17.604-65.602-34.765
	c0-17.16,23.122-31.07,51.643-31.07c21.791,0,50.756,20.027,61.812,22.281C236.237,72.236,236.87,73.565,237.706,75.674
	L237.706,75.674z"/>
<path fill="#2F5D92" d="M26.028,51.426c13.555-10.522,38.663-1.363,56.152,21.168c17.49,22.531,19.373,55.906,5.817,66.427
	c-13.555,10.521-37.416-5.793-54.905-28.324c-13.361-17.212-4.435-45.096-9.433-55.211C24.333,54.258,25.172,52.796,26.028,51.426
	L26.028,51.426z"/>
<radialGradient id="SVGID_3_" cx="154.2773" cy="731.6201" r="104.6918" gradientTransform="matrix(-0.008 0.558 1.031 0.014 -631.4219 -79.4014)" gradientUnits="userSpaceOnUse">
	<stop  offset="0" style="stop-color:#658EB7"/>
	<stop  offset="0.768" style="stop-color:#5380AC"/>
	<stop  offset="1" style="stop-color:#4172A1"/>
</radialGradient>
<path fill="url(#SVGID_3_)" d="M235.376,70.355c-7.672-0.036-66.859,0.317-117.873,0.071c-19.018,5.592-34.71,14.516-42.896,31.918
	C68.766,97.373,30,56.127,25.991,51.502C60.357,5.905,107.583,1.624,116.766,1.624c9.182,0,77.342-9.45,118.608,68.731H235.376z"/>
<path fill="#6B9DD4" d="M111.754,246.295c-13.683-10.356-15.957-40.44,1.254-63.186c17.212-22.742,44.926-38.26,58.609-27.904
	c13.683,10.356,8.153,42.661-9.058,65.403c-13.148,17.375-38.856,18.485-47.325,25.941c-1.357-0.049-2.141-0.066-3.482-0.257
	L111.754,246.295z"/>
<radialGradient id="SVGID_4_" cx="-100.9658" cy="400" r="66.2141" gradientTransform="matrix(0.813 1.7 2.152 -1.029 -651.1211 701.7671)" gradientUnits="userSpaceOnUse">
	<stop  offset="0" style="stop-color:#D0E2F1"/>
	<stop  offset="0.856" style="stop-color:#CBDEF0"/>
	<stop  offset="1" style="stop-color:#96BEE3"/>
</radialGradient>
<path fill="url(#SVGID_4_)" d="M115.233,246.55c3.923-6.594,31.595-57.914,57.686-101.749c4.828-19.225,5.853-36.831-4.99-52.714
	c7.251-2.511,63.759-15.301,69.777-16.408c21.86,52.747,1.589,95.617-3.07,103.53C229.979,187.121,203.541,250.651,115.233,246.55z"
	/>
<radialGradient id="SVGID_5_" cx="-702.5918" cy="473.7744" r="65.033" gradientTransform="matrix(-1.286 -0.086 -0.115 1.714 -763.7822 -752.0801)" gradientUnits="userSpaceOnUse">
	<stop  offset="0" style="stop-color:#97D1E1"/>
	<stop  offset="0.678" style="stop-color:#89B7E2"/>
	<stop  offset="1" style="stop-color:#6B9DD4"/>
</radialGradient>
<path fill="url(#SVGID_5_)" d="M23.702,55.445c3.798,6.667,33.635,57.783,58.877,102.114c14.335,13.69,30.31,21.331,49.476,19.743
	c-1.395,7.543-18.206,63.224-20.214,69.006c-56.663-7.031-83.938-45.823-88.52-53.779C18.739,184.57-23.459,130.218,23.702,55.445z"
	/>
<linearGradient id="SVGID_6_" gradientUnits="userSpaceOnUse" x1="-341.9131" y1="53.8076" x2="-341.635" y2="160.9142" gradientTransform="matrix(0.773 0 0 -0.776 388.502 206.0259)">
	<stop  offset="0" style="stop-color:#3C7ABD"/>
	<stop  offset="1" style="stop-color:#95B8E1"/>
</linearGradient>
<linearGradient id="SVGID_7_" gradientUnits="userSpaceOnUse" x1="-554.041" y1="508.7188" x2="-553.394" y2="380.4327">
	<stop  offset="0" style="stop-color:#D8DEF0"/>
	<stop  offset="0.5" style="stop-color:#FFFFFF"/>
	<stop  offset="1" style="stop-color:#D6DEF0"/>
</linearGradient>
<path fill="url(#SVGID_6_)" stroke="url(#SVGID_7_)" stroke-width="10.07" d="M174.339,123.692
	c0,27.739-22.398,50.226-50.031,50.226c-27.631,0-50.031-22.486-50.031-50.226c0-27.738,22.399-50.225,50.031-50.225
	C151.938,73.467,174.339,95.954,174.339,123.692z"/>
<path fill="#FFFFFF" d="M162.574,98.419c20.288,18.719,17.553,32.36,11.019,48.172C170.188,122.231,171.024,111.089,162.574,98.419z
	"/>
<path fill="#FFFFFF" d="M94.561,169.299c-24.792-15.845-32.636-50.054-9.648-68.96C73.036,121.988,78.097,135.809,94.561,169.299z"
	/>
</svg>
