<?xml version="1.0" encoding="utf-8"?>
<!-- Generator: Adobe Illustrator 15.0.0, SVG Export Plug-In . SVG Version: 6.00 Build 0)  -->
<!DOCTYPE svg PUBLIC "-//W3C//DTD SVG 1.1//EN" "http://www.w3.org/Graphics/SVG/1.1/DTD/svg11.dtd">
<svg version="1.1" id="Layer_1" xmlns="http://www.w3.org/2000/svg" xmlns:xlink="http://www.w3.org/1999/xlink" x="0px" y="0px"
	 width="180.25px" height="84.75px" viewBox="0 4.5 180.25 84.75" enable-background="new 0 4.5 180.25 84.75" xml:space="preserve"
	>
<g>
	<path fill="#FFFFFF" d="M19.053,61.418c-3.553,0.215-7.401,0.16-11.545-0.16c-4.144-0.319-6.216-2.959-6.216-7.914V5.874h5.813
		c1.398,0,2.637,0.54,3.713,1.615c1.075,1.078,1.614,2.369,1.614,3.875v7.266h6.619v2.26c0,1.615-0.54,2.936-1.615,3.956
		c-1.078,1.023-2.369,1.534-3.875,1.534h-1.128v23.897c0,1.833,1.075,2.745,3.229,2.745h3.391L19.053,61.418L19.053,61.418z"/>
	<path fill="#FFFFFF" d="M24.516,57.543c-2.262-1.938-3.875-4.547-4.844-7.831c-0.969-3.283-1.453-6.702-1.453-10.253
		c0-2.908,0.403-5.813,1.21-8.719c0.808-2.906,2.072-5.328,3.796-7.266c2.797-3.229,6.403-5.14,10.817-5.732
		c4.412-0.59,8.396-0.243,11.949,1.05c4.09,1.615,7.104,4.415,9.041,8.396c1.83,3.553,2.746,7.697,2.746,12.434
		c0,3.446-0.378,6.406-1.131,8.881c-0.754,2.478-1.724,4.575-2.906,6.295c-2.584,3.553-5.869,5.762-9.85,6.621
		c-3.553,0.969-7.132,1.051-10.738,0.244C29.547,60.852,26.669,59.479,24.516,57.543z M32.266,29.125
		c-2.26,2.478-3.284,6.163-3.067,11.061c0.214,4.9,1.131,8.316,2.744,10.253c0.646,0.862,1.776,1.589,3.391,2.178
		c1.615,0.591,3.254,0.644,4.925,0.16c1.667-0.482,3.148-1.694,4.441-3.634c1.291-1.937,1.991-5.059,2.098-9.365
		c0-3.875-0.621-6.782-1.857-8.719c-1.238-1.937-2.665-3.173-4.28-3.713c-1.615-0.537-3.229-0.565-4.844-0.081
		C34.205,27.751,33.019,28.372,32.266,29.125z"/>
	<path fill="#FFFFFF" d="M86.304,5.712h5.49c1.506,0,2.799,0.564,3.875,1.695c1.075,1.131,1.615,2.397,1.615,3.794v31.487
		c0,7.644-2.207,12.812-6.621,15.501c-4.415,2.691-9.203,4.035-14.371,4.035c-2.8,0-5.545-0.459-8.235-1.373
		c-2.692-0.912-4.844-2.395-6.458-4.441c-3.124-3.98-4.683-9.416-4.683-16.306c0-6.782,1.559-12.216,4.683-16.309
		c3.229-4.198,7.372-6.297,12.434-6.297c2.69,0,5.058,0.54,7.104,1.615c2.151,1.291,3.875,2.962,5.167,5.006V5.712L86.304,5.712z
		 M67.897,39.619c0,4.307,0.808,7.59,2.422,9.85c1.614,2.26,3.928,3.388,6.942,3.388c2.907,0,5.167-1.133,6.781-3.388
		c1.506-2.26,2.262-5.543,2.262-9.85c0-3.875-0.807-6.943-2.422-9.203c-1.724-2.153-4.037-3.229-6.944-3.229
		c-2.8,0-5.006,1.131-6.619,3.392C68.705,32.732,67.897,35.744,67.897,39.619z"/>
	<path fill="#FFFFFF" d="M125.979,5.712h5.489c1.503,0,2.794,0.564,3.875,1.695c1.073,1.131,1.616,2.397,1.616,3.794v31.487
		c0,7.644-2.207,12.812-6.621,15.501c-4.414,2.691-9.204,4.035-14.37,4.035c-2.798,0-5.546-0.459-8.235-1.373
		c-2.691-0.912-4.844-2.395-6.459-4.441c-3.128-3.98-4.688-9.416-4.688-16.306c0-6.782,1.56-12.216,4.688-16.309
		c3.229-4.198,7.372-6.297,12.433-6.297c2.69,0,5.06,0.54,7.105,1.615c2.153,1.291,3.877,2.962,5.168,5.006L125.979,5.712
		L125.979,5.712z M107.57,39.619c0,4.307,0.808,7.59,2.421,9.85c1.616,2.26,3.929,3.388,6.944,3.388c2.91,0,5.168-1.133,6.781-3.388
		c1.504-2.26,2.26-5.543,2.26-9.85c0-3.875-0.808-6.943-2.421-9.203c-1.724-2.153-4.035-3.229-6.944-3.229
		c-2.798,0-5.004,1.131-6.62,3.392C108.378,32.732,107.57,35.744,107.57,39.619z"/>
</g>
<g>
	<path fill="#FFFFFF" d="M1.291,74.49v-2.102h1.88v-0.885c0-1.018,0.317-1.85,0.951-2.5c0.634-0.648,1.593-0.973,2.876-0.973
		c0.28,0,0.561,0.012,0.841,0.033c0.28,0.021,0.553,0.041,0.818,0.055v2.346c-0.369-0.045-0.752-0.066-1.15-0.066
		c-0.428,0-0.734,0.1-0.918,0.299c-0.185,0.199-0.276,0.535-0.276,1.006v0.686h2.168v2.102H6.313v9.336H3.171V74.49H1.291z"/>
	<path fill="#FFFFFF" d="M11.732,72.389v2.125h0.044c0.147-0.355,0.346-0.682,0.597-0.984c0.25-0.303,0.538-0.561,0.863-0.775
		c0.324-0.213,0.671-0.379,1.04-0.498c0.369-0.117,0.752-0.176,1.15-0.176c0.207,0,0.435,0.037,0.686,0.109v2.922
		c-0.148-0.031-0.325-0.057-0.531-0.078S15.176,75,14.984,75c-0.575,0-1.062,0.096-1.46,0.287c-0.398,0.191-0.719,0.453-0.962,0.785
		s-0.417,0.719-0.52,1.162c-0.103,0.441-0.155,0.922-0.155,1.438v5.154H8.746V72.389H11.732z"/>
	<path fill="#FFFFFF" d="M15.914,75.631c0.28-0.744,0.678-1.379,1.195-1.902c0.516-0.523,1.136-0.93,1.858-1.217
		c0.722-0.289,1.534-0.432,2.434-0.432c0.899,0,1.714,0.143,2.444,0.432c0.73,0.287,1.353,0.693,1.869,1.217
		s0.915,1.158,1.195,1.902c0.28,0.744,0.42,1.574,0.42,2.488s-0.141,1.74-0.42,2.479c-0.28,0.736-0.679,1.367-1.195,1.891
		s-1.139,0.926-1.869,1.205c-0.73,0.281-1.545,0.42-2.444,0.42c-0.9,0-1.711-0.139-2.434-0.42c-0.723-0.279-1.342-0.682-1.858-1.205
		c-0.517-0.523-0.915-1.154-1.195-1.891c-0.28-0.738-0.42-1.564-0.42-2.479S15.633,76.375,15.914,75.631z M18.768,79.457
		c0.088,0.436,0.24,0.826,0.454,1.174c0.213,0.346,0.498,0.623,0.852,0.828c0.354,0.207,0.796,0.311,1.328,0.311
		c0.531,0,0.977-0.104,1.338-0.311c0.361-0.205,0.648-0.482,0.863-0.828c0.213-0.348,0.365-0.738,0.453-1.174
		c0.089-0.434,0.133-0.881,0.133-1.338s-0.044-0.906-0.133-1.35c-0.088-0.441-0.24-0.832-0.453-1.172
		c-0.214-0.34-0.502-0.615-0.863-0.83c-0.362-0.213-0.808-0.32-1.338-0.32c-0.531,0-0.974,0.107-1.328,0.32
		c-0.354,0.215-0.638,0.49-0.852,0.83c-0.214,0.34-0.365,0.73-0.454,1.172c-0.088,0.443-0.133,0.893-0.133,1.35
		S18.679,79.023,18.768,79.457z"/>
	<path fill="#FFFFFF" d="M31.245,72.389v1.594h0.066c0.398-0.664,0.914-1.146,1.548-1.449s1.283-0.453,1.947-0.453
		c0.841,0,1.53,0.113,2.069,0.342c0.538,0.23,0.962,0.547,1.272,0.951c0.31,0.406,0.527,0.9,0.652,1.482
		c0.125,0.584,0.188,1.229,0.188,1.936v7.035h-3.141v-6.459c0-0.943-0.148-1.648-0.442-2.113c-0.295-0.465-0.819-0.697-1.571-0.697
		c-0.855,0-1.475,0.256-1.858,0.764c-0.384,0.51-0.575,1.346-0.575,2.512v5.994h-3.141V72.389H31.245z"/>
	<path fill="#FFFFFF" d="M46.553,72.389v2.102h-2.301v5.664c0,0.531,0.088,0.885,0.265,1.062c0.177,0.176,0.531,0.266,1.062,0.266
		c0.177,0,0.347-0.008,0.509-0.023c0.162-0.014,0.317-0.035,0.465-0.066v2.434c-0.266,0.045-0.561,0.074-0.885,0.09
		c-0.324,0.014-0.641,0.021-0.951,0.021c-0.487,0-0.948-0.033-1.382-0.1c-0.436-0.066-0.819-0.195-1.15-0.387
		c-0.332-0.191-0.594-0.465-0.786-0.818c-0.192-0.355-0.288-0.818-0.288-1.395V74.49h-1.902v-2.102h1.902v-3.428h3.142v3.428H46.553
		z"/>
	<path fill="#FFFFFF" d="M53.588,76.438v2.699h-6.659v-2.699H53.588z"/>
	<path fill="#FFFFFF" d="M58.211,81.084c0.472,0.457,1.15,0.686,2.035,0.686c0.634,0,1.18-0.158,1.637-0.477
		c0.457-0.316,0.737-0.652,0.841-1.006h2.765c-0.442,1.371-1.121,2.354-2.035,2.941c-0.915,0.592-2.021,0.885-3.318,0.885
		c-0.9,0-1.711-0.143-2.434-0.43c-0.723-0.289-1.335-0.697-1.836-1.229c-0.502-0.531-0.889-1.164-1.162-1.902
		s-0.409-1.549-0.409-2.434c0-0.855,0.14-1.652,0.42-2.389c0.28-0.738,0.678-1.375,1.194-1.914s1.132-0.963,1.847-1.271
		c0.715-0.311,1.508-0.465,2.378-0.465c0.973,0,1.821,0.188,2.544,0.564c0.723,0.375,1.316,0.881,1.781,1.514
		c0.465,0.635,0.8,1.357,1.007,2.17c0.206,0.811,0.28,1.658,0.221,2.543h-8.252C57.481,79.889,57.739,80.627,58.211,81.084z
		 M61.762,75.066c-0.376-0.412-0.948-0.619-1.714-0.619c-0.502,0-0.918,0.084-1.25,0.254c-0.332,0.17-0.597,0.379-0.796,0.631
		c-0.199,0.25-0.339,0.516-0.42,0.797c-0.081,0.279-0.129,0.529-0.144,0.752h5.11C62.399,76.084,62.138,75.479,61.762,75.066z"/>
	<path fill="#FFFFFF" d="M69.427,72.389v1.594h0.066c0.398-0.664,0.914-1.146,1.548-1.449s1.283-0.453,1.947-0.453
		c0.841,0,1.53,0.113,2.069,0.342c0.538,0.23,0.962,0.547,1.272,0.951c0.31,0.406,0.527,0.9,0.652,1.482
		c0.125,0.584,0.188,1.229,0.188,1.936v7.035h-3.141v-6.459c0-0.943-0.148-1.648-0.442-2.113c-0.295-0.465-0.819-0.697-1.571-0.697
		c-0.855,0-1.475,0.256-1.858,0.764c-0.384,0.51-0.575,1.346-0.575,2.512v5.994H66.44V72.389H69.427z"/>
	<path fill="#FFFFFF" d="M86.571,82.367c-0.369,0.619-0.852,1.064-1.449,1.338c-0.598,0.273-1.272,0.408-2.024,0.408
		c-0.855,0-1.608-0.164-2.256-0.496c-0.649-0.332-1.184-0.783-1.604-1.35c-0.42-0.568-0.738-1.221-0.951-1.959
		c-0.214-0.736-0.321-1.504-0.321-2.301c0-0.766,0.107-1.508,0.321-2.223c0.213-0.715,0.531-1.346,0.951-1.891
		c0.42-0.547,0.947-0.984,1.582-1.316s1.372-0.498,2.212-0.498c0.678,0,1.324,0.143,1.936,0.432
		c0.612,0.287,1.095,0.711,1.449,1.271h0.044v-5.752h3.141v15.795h-2.986v-1.459H86.571z M86.438,76.715
		c-0.088-0.436-0.24-0.818-0.453-1.15c-0.214-0.332-0.491-0.602-0.83-0.809c-0.34-0.205-0.767-0.309-1.283-0.309
		c-0.517,0-0.951,0.104-1.305,0.309c-0.354,0.207-0.638,0.48-0.852,0.818c-0.214,0.34-0.369,0.727-0.464,1.162
		c-0.096,0.436-0.144,0.889-0.144,1.361c0,0.441,0.052,0.885,0.155,1.326c0.103,0.443,0.269,0.838,0.498,1.184
		c0.229,0.348,0.516,0.627,0.863,0.842c0.346,0.213,0.763,0.32,1.25,0.32c0.516,0,0.947-0.104,1.294-0.311
		c0.346-0.205,0.623-0.482,0.83-0.828c0.207-0.348,0.354-0.742,0.442-1.184c0.089-0.443,0.133-0.9,0.133-1.373
		C86.571,77.604,86.527,77.15,86.438,76.715z"/>
	<path fill="#FFFFFF" d="M99.27,81.084c0.472,0.457,1.15,0.686,2.035,0.686c0.635,0,1.18-0.158,1.637-0.477
		c0.457-0.316,0.738-0.652,0.842-1.006h2.766c-0.443,1.371-1.121,2.354-2.037,2.941c-0.914,0.592-2.02,0.885-3.318,0.885
		c-0.899,0-1.71-0.143-2.432-0.43c-0.723-0.289-1.335-0.697-1.836-1.229c-0.502-0.531-0.889-1.164-1.162-1.902
		s-0.409-1.549-0.409-2.434c0-0.855,0.14-1.652,0.42-2.389c0.28-0.738,0.678-1.375,1.194-1.914s1.132-0.963,1.847-1.271
		c0.716-0.311,1.508-0.465,2.377-0.465c0.975,0,1.822,0.188,2.545,0.564c0.723,0.375,1.316,0.881,1.781,1.514
		c0.465,0.635,0.799,1.357,1.006,2.17c0.207,0.811,0.281,1.658,0.221,2.543h-8.25C98.54,79.889,98.797,80.627,99.27,81.084z
		 M102.82,75.066c-0.377-0.412-0.947-0.619-1.715-0.619c-0.502,0-0.917,0.084-1.25,0.254s-0.598,0.379-0.797,0.631
		c-0.198,0.25-0.339,0.516-0.42,0.797c-0.081,0.279-0.13,0.529-0.144,0.752h5.11C103.459,76.084,103.197,75.479,102.82,75.066z"/>
	<path fill="#FFFFFF" d="M110.484,72.389v1.594h0.066c0.398-0.664,0.916-1.146,1.549-1.449c0.635-0.303,1.283-0.453,1.947-0.453
		c0.842,0,1.529,0.113,2.068,0.342c0.539,0.23,0.963,0.547,1.271,0.951c0.311,0.406,0.527,0.9,0.654,1.482
		c0.125,0.584,0.188,1.229,0.188,1.936v7.035h-3.143v-6.459c0-0.943-0.146-1.648-0.441-2.113s-0.818-0.697-1.57-0.697
		c-0.855,0-1.475,0.256-1.859,0.764c-0.383,0.51-0.574,1.346-0.574,2.512v5.994h-3.143V72.389H110.484z"/>
	<path fill="#FFFFFF" d="M130.318,84.668c-0.125,0.59-0.395,1.139-0.807,1.648c-0.414,0.508-1.012,0.939-1.793,1.293
		s-1.828,0.531-3.141,0.531c-0.561,0-1.133-0.07-1.715-0.211c-0.584-0.141-1.113-0.357-1.594-0.652
		c-0.479-0.295-0.877-0.674-1.193-1.139c-0.318-0.465-0.498-1.021-0.543-1.67h3.119c0.148,0.59,0.436,0.998,0.863,1.227
		s0.922,0.344,1.482,0.344c0.885,0,1.529-0.266,1.936-0.797s0.602-1.201,0.586-2.014v-1.504h-0.045
		c-0.338,0.605-0.822,1.051-1.447,1.338c-0.627,0.289-1.287,0.432-1.98,0.432c-0.855,0-1.594-0.15-2.213-0.453
		s-1.127-0.715-1.525-1.238s-0.689-1.137-0.875-1.836c-0.184-0.701-0.275-1.441-0.275-2.225c0-0.736,0.105-1.447,0.32-2.135
		c0.213-0.686,0.527-1.289,0.939-1.812c0.414-0.523,0.926-0.941,1.537-1.25c0.613-0.311,1.316-0.465,2.113-0.465
		c0.752,0,1.412,0.141,1.98,0.42c0.568,0.281,1.043,0.752,1.426,1.416h0.045v-1.527h2.986v10.707
		C130.506,83.555,130.443,84.078,130.318,84.668z M126.016,80.861c0.34-0.176,0.619-0.412,0.84-0.707
		c0.223-0.295,0.389-0.631,0.498-1.006c0.111-0.377,0.166-0.771,0.166-1.184c0-0.473-0.045-0.918-0.133-1.34
		c-0.088-0.42-0.236-0.791-0.441-1.117c-0.207-0.324-0.48-0.582-0.818-0.773c-0.34-0.191-0.768-0.287-1.283-0.287
		c-0.443,0-0.822,0.088-1.141,0.266c-0.316,0.176-0.582,0.416-0.795,0.719c-0.215,0.303-0.369,0.648-0.465,1.039
		c-0.098,0.391-0.145,0.801-0.145,1.229c0,0.412,0.041,0.822,0.121,1.227c0.082,0.406,0.223,0.771,0.422,1.096
		c0.197,0.324,0.459,0.59,0.785,0.797c0.324,0.207,0.729,0.309,1.217,0.309C125.285,81.127,125.676,81.039,126.016,80.861z"/>
	<path fill="#FFFFFF" d="M132.01,70.619v-2.588h3.143v2.588H132.01z M135.152,72.389v11.438h-3.143V72.389H135.152z"/>
	<path fill="#FFFFFF" d="M139.51,72.389v1.594h0.066c0.398-0.664,0.914-1.146,1.549-1.449c0.633-0.303,1.283-0.453,1.947-0.453
		c0.84,0,1.529,0.113,2.068,0.342c0.537,0.23,0.961,0.547,1.271,0.951c0.309,0.406,0.527,0.9,0.652,1.482
		c0.125,0.584,0.188,1.229,0.188,1.936v7.035h-3.141v-6.459c0-0.943-0.148-1.648-0.443-2.113s-0.818-0.697-1.57-0.697
		c-0.855,0-1.475,0.256-1.857,0.764c-0.385,0.51-0.576,1.346-0.576,2.512v5.994h-3.141V72.389H139.51z"/>
	<path fill="#FFFFFF" d="M151.898,81.084c0.471,0.457,1.15,0.686,2.035,0.686c0.633,0,1.18-0.158,1.637-0.477
		c0.457-0.316,0.736-0.652,0.84-1.006h2.766c-0.443,1.371-1.121,2.354-2.035,2.941c-0.914,0.592-2.021,0.885-3.318,0.885
		c-0.9,0-1.711-0.143-2.434-0.43c-0.723-0.289-1.334-0.697-1.836-1.229s-0.889-1.164-1.162-1.902s-0.408-1.549-0.408-2.434
		c0-0.855,0.139-1.652,0.42-2.389c0.279-0.738,0.678-1.375,1.195-1.914c0.516-0.539,1.131-0.963,1.846-1.271
		c0.717-0.311,1.508-0.465,2.379-0.465c0.973,0,1.82,0.188,2.545,0.564c0.721,0.375,1.314,0.881,1.779,1.514
		c0.465,0.635,0.801,1.357,1.008,2.17c0.205,0.811,0.279,1.658,0.221,2.543h-8.252C151.168,79.889,151.426,80.627,151.898,81.084z
		 M155.447,75.066c-0.375-0.412-0.947-0.619-1.713-0.619c-0.502,0-0.918,0.084-1.25,0.254s-0.598,0.379-0.797,0.631
		c-0.199,0.25-0.34,0.516-0.42,0.797c-0.082,0.279-0.129,0.529-0.145,0.752h5.111C156.086,76.084,155.824,75.479,155.447,75.066z"/>
	<path fill="#FFFFFF" d="M163.49,81.084c0.471,0.457,1.15,0.686,2.035,0.686c0.633,0,1.18-0.158,1.637-0.477
		c0.457-0.316,0.736-0.652,0.84-1.006h2.766c-0.443,1.371-1.121,2.354-2.035,2.941c-0.914,0.592-2.021,0.885-3.318,0.885
		c-0.9,0-1.711-0.143-2.434-0.43c-0.723-0.289-1.334-0.697-1.836-1.229s-0.889-1.164-1.162-1.902s-0.408-1.549-0.408-2.434
		c0-0.855,0.139-1.652,0.42-2.389c0.279-0.738,0.678-1.375,1.195-1.914c0.516-0.539,1.131-0.963,1.846-1.271
		c0.717-0.311,1.508-0.465,2.379-0.465c0.973,0,1.82,0.188,2.545,0.564c0.721,0.375,1.314,0.881,1.779,1.514
		c0.465,0.635,0.801,1.357,1.008,2.17c0.205,0.811,0.279,1.658,0.221,2.543h-8.252C162.76,79.889,163.018,80.627,163.49,81.084z
		 M167.039,75.066c-0.375-0.412-0.947-0.619-1.713-0.619c-0.502,0-0.918,0.084-1.25,0.254s-0.598,0.379-0.797,0.631
		c-0.199,0.25-0.34,0.516-0.42,0.797c-0.082,0.279-0.129,0.529-0.145,0.752h5.111C167.678,76.084,167.416,75.479,167.039,75.066z"/>
	<path fill="#FFFFFF" d="M174.705,72.389v2.125h0.045c0.146-0.355,0.346-0.682,0.596-0.984c0.252-0.303,0.539-0.561,0.863-0.775
		c0.324-0.213,0.672-0.379,1.041-0.498c0.367-0.117,0.752-0.176,1.15-0.176c0.205,0,0.434,0.037,0.686,0.109v2.922
		c-0.148-0.031-0.326-0.057-0.531-0.078c-0.207-0.021-0.406-0.033-0.598-0.033c-0.574,0-1.062,0.096-1.461,0.287
		c-0.396,0.191-0.719,0.453-0.961,0.785c-0.244,0.332-0.418,0.719-0.52,1.162c-0.104,0.441-0.156,0.922-0.156,1.438v5.154h-3.141
		V72.389H174.705z"/>
</g>
</svg>
